# xmcd
#
# Track frame offsets:
#	150
#	12927
#	26108
#	41474
#	57763
#	72032
#	87767
#	103896
#	123212
#	137002
#	153266
#	170844
#	187539
#
# Disc length: 2699 seconds
# Revision: 0
# Processed by: cddbd v1.5.2PL0 Copyright (c) Steve Scherf et al.
# Submitted via: dBpowerAMP V12.0
#
DISCID=9e0a890d
DTITLE=Cindy G - Jail Break
DYEAR=2015
DGENRE=
TTITLE0=Jail Break
TTITLE1=Ruby, Are You Mad
TTITLE2=Hexie
TTITLE3=Kiss Me
TTITLE4=Sounds of War
TTITLE5=Wilds of Wise County
TTITLE6=Sitting On Top of the World
TTITLE7=Never Happy
TTITLE8=Waiting For the Train
TTITLE9=She Walks These Hills
TTITLE10=Living Picture (The Story of the Mather Mine)
TTITLE11=Words
TTITLE12=Raise Your Voices
EXTD=
EXTT0=
EXTT1=
EXTT2=
EXTT3=
EXTT4=
EXTT5=
EXTT6=
EXTT7=
EXTT8=
EXTT9=
EXTT10=
EXTT11=
EXTT12=
PLAYORDER=
